<svg xmlns="http://www.w3.org/2000/svg" viewBox="0 0 64 64" role="img" aria-label="Peavines mark">
  <g transform="translate(8 8)">
    <path d="M8 44 C 8 28, 22 22, 30 18 C 38 14, 44 6, 48 4" fill="none" stroke="#3F5A30" stroke-width="2.4" stroke-linecap="round"></path>
    <path d="M30 18 C 22 14, 18 6, 24 2 C 30 6, 32 12, 30 18 Z" fill="#A8C28A" stroke="#3F5A30" stroke-width="1.6" stroke-linejoin="round"></path>
    <path d="M14 32 C 6 32, 2 24, 6 18 C 14 20, 16 26, 14 32 Z" fill="#A8C28A" stroke="#3F5A30" stroke-width="1.6" stroke-linejoin="round"></path>
    <path d="M14 48 Q 22 36, 42 40 Q 38 52, 22 52 Q 16 52, 14 48 Z" fill="#6B8E4E" stroke="#2E4324" stroke-width="1.6" stroke-linejoin="round"></path>
    <circle cx="22" cy="46" r="3" fill="#FBF7EE" stroke="#2E4324" stroke-width="1"></circle>
    <circle cx="30" cy="45" r="3.2" fill="#FBF7EE" stroke="#2E4324" stroke-width="1"></circle>
    <circle cx="37" cy="45" r="2.8" fill="#FBF7EE" stroke="#2E4324" stroke-width="1"></circle>
  </g>
</svg>