<svg xmlns="http://www.w3.org/2000/svg" viewBox="0 0 200 80" role="img" aria-label="Climbing vine divider">
  <path d="M4 60 C 24 40, 44 70, 64 50 C 84 30, 104 60, 124 40 C 144 20, 164 50, 196 30" fill="none" stroke="#3F5A30" stroke-width="2" stroke-linecap="round"></path>
  <g fill="#A8C28A" stroke="#3F5A30" stroke-width="1.4" stroke-linejoin="round">
    <path d="M40 56 C 32 50, 30 40, 38 38 C 44 42, 46 50, 40 56 Z"></path>
    <path d="M88 38 C 80 32, 78 22, 86 20 C 92 24, 94 32, 88 38 Z"></path>
    <path d="M148 30 C 140 26, 138 16, 146 14 C 152 18, 154 26, 148 30 Z"></path>
  </g>
  <circle cx="64" cy="50" r="2.4" fill="#6B8E4E"></circle>
  <circle cx="124" cy="40" r="2.4" fill="#6B8E4E"></circle>
  <circle cx="180" cy="32" r="2.4" fill="#6B8E4E"></circle>
</svg>